<svg id="Capa_1" enable-background="new 0 0 512 512" height="512" viewBox="0 0 512 512" width="512" xmlns="http://www.w3.org/2000/svg"><g><path d="m10 336c-5.522 0-10 4.477-10 10s4.478 10 10 10h50v86c0 5.523 4.478 10 10 10h86v50c0 5.523 4.478 10 10 10s10-4.477 10-10v-50h40v50c0 5.523 4.478 10 10 10s10-4.477 10-10v-50h40v50c0 5.523 4.478 10 10 10s10-4.477 10-10v-50h40v50c0 5.523 4.478 10 10 10s10-4.477 10-10v-50h41c5.522 0 10-4.477 10-10s-4.478-10-10-10h-41v-20c0-5.523-4.478-10-10-10s-10 4.477-10 10v20h-40v-20c0-5.523-4.478-10-10-10s-10 4.477-10 10v20h-40v-20c0-5.523-4.478-10-10-10s-10 4.477-10 10v20h-40v-20c0-5.523-4.478-10-10-10s-10 4.477-10 10v20h-76v-76h20c5.522 0 10-4.477 10-10s-4.478-10-10-10h-20v-40h20c5.522 0 10-4.477 10-10s-4.478-10-10-10h-20v-40h20c5.522 0 10-4.477 10-10s-4.478-10-10-10h-20v-40h20c5.522 0 10-4.477 10-10s-4.478-10-10-10h-20v-76h76v20c0 5.523 4.478 10 10 10s10-4.477 10-10v-20h40v20c0 5.523 4.478 10 10 10s10-4.477 10-10v-20h40v20c0 5.523 4.478 10 10 10s10-4.477 10-10v-20h40v20c0 5.523 4.478 10 10 10s10-4.477 10-10v-20h76v76h-20c-5.522 0-10 4.477-10 10s4.478 10 10 10h20v40h-20c-5.522 0-10 4.477-10 10s4.478 10 10 10h20v40h-20c-5.522 0-10 4.477-10 10s4.478 10 10 10h20v40h-20c-5.522 0-10 4.477-10 10s4.478 10 10 10h20v41c0 5.523 4.478 10 10 10s10-4.477 10-10v-41h50c5.522 0 10-4.477 10-10s-4.478-10-10-10h-50v-40h50c5.522 0 10-4.477 10-10s-4.478-10-10-10h-50v-40h50c5.522 0 10-4.477 10-10s-4.478-10-10-10h-50v-40h50c5.522 0 10-4.477 10-10s-4.478-10-10-10h-50v-86c0-5.523-4.478-10-10-10h-86v-50c0-5.523-4.478-10-10-10s-10 4.477-10 10v50h-40v-50c0-5.523-4.478-10-10-10s-10 4.477-10 10v50h-40v-50c0-5.523-4.478-10-10-10s-10 4.477-10 10v50h-40v-50c0-5.523-4.478-10-10-10s-10 4.477-10 10v50h-86c-5.522 0-10 4.477-10 10v86h-50c-5.522 0-10 4.477-10 10s4.478 10 10 10h50v40h-50c-5.522 0-10 4.477-10 10s4.478 10 10 10h50v40h-50c-5.522 0-10 4.477-10 10s4.478 10 10 10h50v40z"/><circle cx="442" cy="442" r="10"/><path d="m357 203.47c0-3.575-1.908-6.877-5.005-8.663l-91-52.47c-.025-.014-.052-.024-.077-.038-3.191-1.808-7.031-1.646-9.954.062l-90 52.47c-3.074 1.792-4.964 5.082-4.964 8.639v104.2c0 .029.005.057.006.085.028 3.589 1.983 6.8 4.923 8.527.025.015.047.033.072.048l90.23 52.09c3.085 1.781 6.887 1.786 9.978.013l90.77-52.09c2.932-1.682 4.992-4.933 5.017-8.593 0-.027.005-.053.005-.08v-104.2zm-20 86.93-71-40.753v-81.338l71 40.938zm-91-121.995v81.525l-70 40.419v-81.133zm10.245 179.817-70.245-40.553 70.246-40.56 70.664 40.56z"/></g></svg>